# xmcd CD database file
#
# Track frame offsets:
#	150
#	10454
#	20121
#	31623
#	42768
#	54715
#	66846
#	77834
#	91228
#	100730
#	112505
#	120859
#
# Disc length: 1791 seconds
#
# Revision: 0
# Processed by: cddbd v1.5.2PL0 Copyright (c) Steve Scherf et al.
# Submitted via: CDex 1.70beta2
#
DISCID=8506fd0c
DTITLE=CMH - 60 - 1 - Country Music Hits - 60s
DYEAR=1900
DGENRE=Country
TTITLE0=01 - Faron Young - Hello Walls
TTITLE1=02 - John Hartford - Gentle on My Mind
TTITLE2=03 - Billie Jo Spears - Try A Little Kindness
TTITLE3=04 - Porter Wagoner - Misery Loves Company
TTITLE4=05 - Kitty Wells and Roy Drusky - As Long As I Live
TTITLE5=06 - Johnny Paycheck - She Thinks I Still Care
TTITLE6=07 - Johnny Russell - King Of The Road
TTITLE7=08 - Jimmy Dean - Big Bad John
TTITLE8=09 - Kenny Price - My Goal For Today
TTITLE9=10 - Del Reeves - Girl On The Billboard
TTITLE10=11 - Phil Braugh - Folsom Prison Blues
TTITLE11=12 - Kenny Rodgers - Ruby, Dont Take Your Love To Town
EXTD=
EXTT0=
EXTT1=
EXTT2=
EXTT3=
EXTT4=
EXTT5=
EXTT6=
EXTT7=
EXTT8=
EXTT9=
EXTT10=
EXTT11=
PLAYORDER=
